HIERARCHY
ROOT SpineBase
{
  OFFSET 0.000000 0.000000 0.000000
  CHANNELS 6 Xposition Yposition Zposition Zrotation Xrotation Yrotation
  JOINT SpineMid
  {
    OFFSET 0.000000 30.607690 0.000000
    CHANNELS 3 Zrotation Xrotation Yrotation
    JOINT SpineShoulder
    {
      OFFSET 0.034022 22.767401 -0.733399
      CHANNELS 3 Zrotation Xrotation Yrotation
      JOINT Neck
      {
        OFFSET 0.037028 7.539698 -0.556727
        CHANNELS 3 Zrotation Xrotation Yrotation
        JOINT Head
        {
          OFFSET -3.921640 13.566274 -1.356044
          CHANNELS 3 Zrotation Xrotation Yrotation
          End Site
          {
            OFFSET 0 0 0
          }
        }
      }
      JOINT ShoulderLeft
      {
        OFFSET -16.779832 -4.031060 6.023141
        CHANNELS 3 Zrotation Xrotation Yrotation
        JOINT ElbowLeft
        {
          OFFSET -2.051113 -27.147604 1.703690
          CHANNELS 3 Zrotation Xrotation Yrotation
          JOINT WristLeft
          {
            OFFSET -0.543844 -20.539465 -7.209416
            CHANNELS 3 Zrotation Xrotation Yrotation
            JOINT HandLeft
            {
              OFFSET 0.487080 -3.533172 -0.349400
              CHANNELS 3 Zrotation Xrotation Yrotation
              JOINT HandTipLeft
              {
                OFFSET 1.441340 -5.592445 -1.025202
                CHANNELS 3 Zrotation Xrotation Yrotation
                End Site
                {
                  OFFSET 0 0 0
                }
              }
              JOINT ThumbLeft
              {
                OFFSET 3.402935 1.532399 -3.963599
                CHANNELS 3 Zrotation Xrotation Yrotation
                End Site
                {
                  OFFSET 0 0 0
                }
              }
            }
          }
        }
      }
      JOINT ShoulderRight
      {
        OFFSET 13.545009 -2.952224 -7.916262
        CHANNELS 3 Zrotation Xrotation Yrotation
        JOINT ElbowRight
        {
          OFFSET 6.915032 -27.373950 -0.028865
          CHANNELS 3 Zrotation Xrotation Yrotation
          JOINT WristRight
          {
            OFFSET 2.157746 -23.409396 -4.636838
            CHANNELS 3 Zrotation Xrotation Yrotation
            JOINT HandRight
            {
              OFFSET 1.690146 -4.425810 0.251053
              CHANNELS 3 Zrotation Xrotation Yrotation
              JOINT HandTipRight
              {
                OFFSET 2.065523 -8.271531 1.475876
                CHANNELS 3 Zrotation Xrotation Yrotation
                End Site
                {
                  OFFSET 0 0 0
                }
              }
              JOINT ThumbRight
              {
                OFFSET -2.778737 -3.012427 1.627021
                CHANNELS 3 Zrotation Xrotation Yrotation
                End Site
                {
                  OFFSET 0 0 0
                }
              }
            }
          }
        }
      }
    }
  }
  JOINT HipLeft
  {
    OFFSET -6.279358 0.236212 -0.845775
    CHANNELS 3 Zrotation Xrotation Yrotation
    JOINT KneeLeft
    {
      OFFSET 0.627950 -26.101167 4.645251
      CHANNELS 3 Zrotation Xrotation Yrotation
      JOINT AnkleLeft
      {
        OFFSET 3.193015 -32.443746 5.719313
        CHANNELS 3 Zrotation Xrotation Yrotation
        JOINT FootLeft
        {
          OFFSET -1.372699 -4.368818 -10.655507
          CHANNELS 3 Zrotation Xrotation Yrotation
          End Site
          {
            OFFSET 0 0 0
          }
        }
      }
    }
  }
  JOINT HipRight
  {
    OFFSET 7.016300 1.560097 -5.680469
    CHANNELS 3 Zrotation Xrotation Yrotation
    JOINT KneeRight
    {
      OFFSET 9.449042 -23.863570 0.809663
      CHANNELS 3 Zrotation Xrotation Yrotation
      JOINT AnkleRight
      {
        OFFSET -2.856659 -33.618743 7.642222
        CHANNELS 3 Zrotation Xrotation Yrotation
        JOINT FootRight
        {
          OFFSET -5.252989 -6.270075 -0.964397
          CHANNELS 3 Zrotation Xrotation Yrotation
          End Site
          {
            OFFSET 0 0 0
          }
        }
      }
    }
  }
}
MOTION
Frames: 10
Frame Time: 0.033333
-41.018457 66.997265 347.666833 -1.291105 2.259405 25.287552 -0.075532 0.177904 -25.313195 -0.108540 0.074000 -0.077696 1.271424 -8.287039 -1.574295 0.000000 0.000000 0.000000 -7.359980 25.970668 -0.728760 4.766073 54.283981 4.130181 -3.754211 6.564856 14.255757 -43.504665 2.521974 -21.241424 0.000000 0.000000 0.000000 0.000000 0.000000 0.000000 -32.185541 26.623731 16.390511 -49.885992 13.105484 6.898349 -17.288955 19.941227 19.764732 13.656606 1.254864 -20.852901 0.000000 0.000000 0.000000 0.000000 0.000000 0.000000 3.627085 -1.685720 -24.590750 -3.968812 -1.029973 -0.729454 -3.276959 5.054095 8.138161 0.000000 0.000000 0.000000 -13.142622 -1.268704 -28.046877 22.956358 8.547161 2.689753 -4.003397 3.616754 -9.378210 0.000000 0.000000 0.000000
-41.005359 67.036033 347.647788 -1.283920 2.304111 25.045772 -0.091712 0.170275 -25.071634 -0.104122 0.078727 -0.077531 1.146196 -8.309970 -1.594504 0.000000 0.000000 0.000000 -7.173274 25.828931 -0.761889 5.994836 54.192551 3.270266 -5.379457 11.746527 14.631924 -45.368577 1.870364 -25.541850 0.000000 0.000000 0.000000 0.000000 0.000000 0.000000 -32.863154 27.218951 16.970884 -48.598425 12.403031 5.654903 -20.681045 21.662556 24.224448 14.626947 2.863670 -17.354606 0.000000 0.000000 0.000000 0.000000 0.000000 0.000000 3.540432 -1.700981 -24.362203 -3.853265 -1.073169 -0.711590 -3.299141 5.140375 8.068701 0.000000 0.000000 0.000000 -13.300105 -1.299260 -27.826212 23.144861 8.648185 2.677129 -3.665844 3.475478 -9.427685 0.000000 0.000000 0.000000
-40.993785 67.073109 347.631814 -1.270240 2.353517 24.840556 -0.099913 0.165785 -24.866189 -0.096106 0.086369 -0.076543 0.896179 -8.391636 -1.650907 0.000000 0.000000 0.000000 -6.972104 25.713550 -0.802335 5.582157 54.281343 3.334773 -6.465136 14.458400 14.688154 -46.860777 3.653424 -27.884902 0.000000 0.000000 0.000000 0.000000 0.000000 0.000000 -33.289715 27.301887 17.147204 -47.981769 11.314517 4.518192 -23.355346 23.444413 30.538983 14.035145 3.070047 -20.070195 0.000000 0.000000 0.000000 0.000000 0.000000 0.000000 3.442614 -1.695013 -24.172971 -3.767630 -1.149364 -0.702657 -3.285193 5.235280 8.021520 0.000000 0.000000 0.000000 -13.414989 -1.312262 -27.623432 23.278987 8.678435 2.665781 -3.450485 3.222806 -9.308738 0.000000 0.000000 0.000000
-40.982756 67.101325 347.619451 -1.264819 2.392561 24.671453 -0.112286 0.163780 -24.697292 -0.091679 0.087626 -0.076444 0.680446 -8.429121 -1.694674 0.000000 0.000000 0.000000 -6.751128 25.632084 -0.838838 5.177965 54.321552 3.393214 -8.886563 14.941647 13.313600 -44.283851 4.604599 -25.541168 0.000000 0.000000 0.000000 0.000000 0.000000 0.000000 -32.948186 26.804187 16.724670 -48.240780 11.251497 4.861373 -24.762283 23.975412 32.629552 14.054430 1.890547 -23.450387 0.000000 0.000000 0.000000 0.000000 0.000000 0.000000 3.348757 -1.659201 -24.023408 -3.688309 -1.250318 -0.696960 -3.259583 5.326509 8.005922 0.000000 0.000000 0.000000 -13.530955 -1.326630 -27.464416 23.425922 8.756549 2.652522 -3.472728 2.947080 -9.134076 0.000000 0.000000 0.000000
-40.977485 67.119489 347.617776 -1.275073 2.416534 24.548320 -0.123812 0.169985 -24.574722 -0.092110 0.084611 -0.077564 0.556846 -8.469334 -1.727065 0.000000 0.000000 0.000000 -6.558334 25.558232 -0.863620 4.892666 54.355391 3.421681 -7.677292 15.098485 14.093470 -43.161671 14.246551 -20.015936 0.000000 0.000000 0.000000 0.000000 0.000000 0.000000 -32.895249 26.409458 16.466385 -48.066315 10.625807 4.605441 -25.427379 25.080024 37.984048 13.325329 -0.620329 -30.398300 0.000000 0.000000 0.000000 0.000000 0.000000 0.000000 3.269188 -1.595136 -23.922402 -3.604700 -1.357340 -0.690328 -3.233453 5.398550 8.012314 0.000000 0.000000 0.000000 -13.665022 -1.339821 -27.365119 23.648512 8.886234 2.644334 -3.383713 2.593200 -8.949566 0.000000 0.000000 0.000000
-40.980806 67.144344 347.623760 -1.307088 2.426782 24.564614 -0.140127 0.178704 -24.592200 -0.099671 0.075541 -0.080486 0.519778 -8.443208 -1.732145 0.000000 0.000000 0.000000 -6.446956 25.499931 -0.865458 4.748478 54.383142 3.456809 -4.532895 14.019270 15.700975 -37.415257 26.732085 -8.202908 0.000000 0.000000 0.000000 0.000000 0.000000 0.000000 -32.427843 25.830732 15.986834 -48.702169 11.802278 6.284682 -22.725087 24.984353 39.283091 9.826288 -4.056143 -44.163418 0.000000 0.000000 0.000000 0.000000 0.000000 0.000000 3.227469 -1.504519 -23.958855 -3.547883 -1.459266 -0.687276 -3.189367 5.425995 8.033958 0.000000 0.000000 0.000000 -13.615329 -1.329935 -27.364883 23.618563 8.827630 2.641828 -3.163666 2.274784 -8.683517 0.000000 0.000000 0.000000
-40.993158 67.153571 347.628012 -1.357947 2.430079 24.508784 -0.154689 0.178196 -24.537591 -0.116227 0.058556 -0.084839 0.575349 -8.296431 -1.691797 0.000000 0.000000 0.000000 -6.378882 25.416121 -0.852533 4.671613 54.459772 3.498298 -0.668096 12.698147 17.705731 -30.793286 32.212591 -1.566271 0.000000 0.000000 0.000000 0.000000 0.000000 0.000000 -32.169209 26.012188 16.059362 -49.641017 13.132322 7.463926 -17.824719 24.625168 40.559280 5.497255 -1.274085 -51.831834 0.000000 0.000000 0.000000 0.000000 0.000000 0.000000 3.233944 -1.439094 -23.914640 -3.516886 -1.554057 -0.689148 -3.161624 5.457497 8.070886 0.000000 0.000000 0.000000 -13.443179 -1.368281 -27.282765 23.443379 8.724348 2.638255 -2.592109 2.141122 -8.633821 0.000000 0.000000 0.000000
-40.996248 67.149929 347.635393 -1.402170 2.437535 24.402868 -0.167929 0.190592 -24.432863 -0.133761 0.057281 -0.089114 0.650698 -8.308188 -1.684870 0.000000 0.000000 0.000000 -6.369768 25.317445 -0.835800 4.655014 54.523291 3.552925 2.316291 11.742677 19.286365 -9.123404 32.572962 9.761531 0.000000 0.000000 0.000000 0.000000 0.000000 0.000000 -32.752265 25.904131 16.189683 -49.224639 15.365408 9.999898 -13.081515 22.793989 37.408507 0.991641 5.238081 -58.897164 0.000000 0.000000 0.000000 0.000000 0.000000 0.000000 3.252913 -1.497515 -23.806928 -3.570182 -1.496285 -0.696124 -3.126847 5.440859 8.125787 0.000000 0.000000 0.000000 -13.159921 -1.391675 -27.109428 23.096914 8.413604 2.639738 -1.862926 2.262498 -8.727376 0.000000 0.000000 0.000000
-40.996522 67.132054 347.644200 -1.444147 2.431210 24.298111 -0.177421 0.199277 -24.329150 -0.150279 0.049839 -0.092994 0.652763 -8.297768 -1.691471 0.000000 0.000000 0.000000 -6.429151 25.213124 -0.808629 4.676759 54.620003 3.629486 4.282746 11.751440 20.469893 -1.739601 17.318473 10.090363 0.000000 0.000000 0.000000 0.000000 0.000000 0.000000 -34.050911 25.997097 16.654910 -47.947819 17.618144 12.503735 -8.910190 19.950399 32.500764 -0.170770 6.525479 -55.234510 0.000000 0.000000 0.000000 0.000000 0.000000 0.000000 3.325803 -1.535961 -23.691168 -3.615102 -1.500778 -0.706414 -3.139630 5.459809 8.167904 0.000000 0.000000 0.000000 -12.761071 -1.411403 -26.911010 22.565622 8.060074 2.626366 -1.393158 2.380227 -8.723284 0.000000 0.000000 0.000000
-40.995304 67.104290 347.654978 -1.484910 2.413977 24.189019 -0.182087 0.205257 -24.220911 -0.163303 0.040670 -0.096233 0.584250 -8.242156 -1.701318 0.000000 0.000000 0.000000 -6.520139 25.105701 -0.777998 4.729301 54.739525 3.703318 4.115271 13.125309 20.662035 5.769168 -0.946942 13.813805 0.000000 0.000000 0.000000 0.000000 0.000000 0.000000 -35.872270 26.276162 17.407976 -45.748993 19.300191 14.274473 -7.444397 16.763170 25.847732 -0.981186 7.476087 -51.952150 0.000000 0.000000 0.000000 0.000000 0.000000 0.000000 3.407847 -1.588641 -23.568633 -3.658534 -1.449397 -0.710987 -3.168308 5.440081 8.203854 0.000000 0.000000 0.000000 -12.370816 -1.427060 -26.712255 22.059900 7.749303 2.608378 -1.250516 2.437821 -8.614763 0.000000 0.000000 0.000000
